<svg xmlns="http://www.w3.org/2000/svg" width="960" height="420" viewBox="0 0 960 420" role="img" aria-label="xAI Quota Guard dashboard mock">
  <defs>
    <linearGradient id="bg" x1="0" y1="0" x2="1" y2="1">
      <stop offset="0%" stop-color="#0f172a"/>
      <stop offset="100%" stop-color="#1e293b"/>
    </linearGradient>
  </defs>
  <rect width="960" height="420" rx="16" fill="url(#bg)"/>
  <text x="28" y="42" fill="#e2e8f0" font-family="Segoe UI, sans-serif" font-size="22" font-weight="700">xAI Quota Guard · 状态栏</text>
  <text x="28" y="68" fill="#94a3b8" font-family="Segoe UI, sans-serif" font-size="13">v0.2.23 · 仅 xAI · 日额度池 = 启用 × 1M</text>
  <g font-family="Segoe UI, sans-serif">
    <rect x="28" y="96" width="170" height="88" rx="12" fill="#111827" stroke="#334155"/>
    <text x="44" y="124" fill="#94a3b8" font-size="12">凭证数</text>
    <text x="44" y="158" fill="#38bdf8" font-size="28" font-weight="700">1847</text>
    <rect x="214" y="96" width="170" height="88" rx="12" fill="#111827" stroke="#334155"/>
    <text x="230" y="124" fill="#94a3b8" font-size="12">日额度池(估)</text>
    <text x="230" y="158" fill="#a78bfa" font-size="28" font-weight="700">1.8G</text>
    <rect x="400" y="96" width="170" height="88" rx="12" fill="#111827" stroke="#334155"/>
    <text x="416" y="124" fill="#94a3b8" font-size="12">已用 · 今日</text>
    <text x="416" y="158" fill="#34d399" font-size="28" font-weight="700">909K</text>
    <rect x="586" y="96" width="170" height="88" rx="12" fill="#111827" stroke="#334155"/>
    <text x="602" y="124" fill="#94a3b8" font-size="12">套餐 F / S / H</text>
    <text x="602" y="158" fill="#fbbf24" font-size="24" font-weight="700">1846 / 1 / 0</text>
    <rect x="772" y="96" width="160" height="88" rx="12" fill="#111827" stroke="#334155"/>
    <text x="788" y="124" fill="#94a3b8" font-size="12">功能</text>
    <text x="788" y="158" fill="#4ade80" font-size="22" font-weight="700">ON</text>
  </g>
  <rect x="28" y="210" width="904" height="18" rx="9" fill="#1e293b"/>
  <rect x="28" y="210" width="180" height="18" rx="9" fill="#22c55e"/>
  <text x="28" y="258" fill="#94a3b8" font-family="Segoe UI, sans-serif" font-size="12">进度 = 今日已用 / 日额度池 · 滚动快照单独展示</text>
  <rect x="28" y="280" width="904" height="110" rx="12" fill="#0b1220" stroke="#334155"/>
  <text x="48" y="318" fill="#e2e8f0" font-family="Segoe UI, sans-serif" font-size="15" font-weight="600">处理矩阵摘要</text>
  <text x="48" y="348" fill="#86efac" font-family="Segoe UI, sans-serif" font-size="13">429 free-usage → 冷却恢复 · 402 spending → 冷却不删 · 401/真403 → 删除</text>
  <text x="48" y="372" fill="#fca5a5" font-family="Segoe UI, sans-serif" font-size="13">region / 426 / 网络 / 探测 4xx·5xx → 不删 · 用户手动禁用永不自动启用</text>
</svg>